<?xml version="1.0" standalone="no"?>
<!DOCTYPE svg PUBLIC "-//W3C//DTD SVG 20010904//EN"
 "http://www.w3.org/TR/2001/REC-SVG-20010904/DTD/svg10.dtd">
<svg version="1.0" xmlns="http://www.w3.org/2000/svg"
 width="250.000000pt" height="250.000000pt" viewBox="0 0 250.000000 250.000000"
 preserveAspectRatio="xMidYMid meet">
<metadata>
Created by potrace 1.11, written by Peter Selinger 2001-2013
</metadata>
<g transform="translate(0.000000,250.000000) scale(0.100000,-0.100000)"
fill="#000000" stroke="none">
<path d="M598 2094 c-2 -1 -20 -5 -41 -8 -50 -8 -133 -43 -175 -73 -108 -80
-165 -183 -177 -323 -6 -63 -6 -90 -2 -214 2 -59 2 -60 -26 -61 -25 -2 -61
-23 -44 -26 13 -3 22 -6 47 -17 20 -8 15 -9 -31 -5 -55 5 -56 5 -69 -27 -12
-28 -11 -37 1 -59 8 -14 21 -26 29 -26 10 0 15 -11 16 -33 0 -36 10 -50 39
-55 33 -5 42 -15 39 -44 -10 -77 1 -424 17 -500 11 -57 31 -85 53 -77 19 7 51
85 66 157 6 31 16 57 21 57 5 0 9 -26 9 -58 0 -32 6 -66 13 -76 12 -16 16 -17
35 -5 28 18 30 24 36 144 4 55 9 141 12 190 4 50 7 112 8 140 l1 50 75 -2 c41
-1 122 -4 180 -6 l105 -3 1 -190 c2 -188 4 -217 17 -230 7 -7 8 5 11 98 2 72
12 45 13 -38 2 -112 11 -174 29 -202 25 -39 59 -26 69 28 13 69 13 75 14 91 1
20 35 31 50 16 33 -33 40 37 41 387 0 35 4 47 13 43 7 -2 28 3 47 12 56 26 51
83 -12 121 l-30 18 31 16 c17 9 31 21 31 27 0 13 -46 59 -59 59 -6 0 -8 40 -5
108 3 59 5 125 5 147 -1 220 -137 388 -356 441 -22 6 -143 12 -147 8z m187
-280 c36 -23 62 -63 70 -107 6 -31 9 -210 6 -290 -1 -15 -9 -17 -56 -14 -43 3
-56 0 -60 -12 -6 -21 -165 -29 -165 -9 0 9 -3 9 -10 -2 -9 -13 -10 -13 -10 0
0 11 -2 12 -8 3 -5 -8 -13 -9 -22 -3 -13 8 -13 10 -1 10 8 0 12 3 9 6 -4 3
-15 1 -25 -4 -11 -6 -24 -8 -30 -4 -13 9 -16 299 -2 323 8 15 6 17 -8 12 -11
-4 -5 5 12 21 17 16 22 23 13 16 -30 -21 -20 6 14 39 64 63 189 70 273 15z
m105 -74 c0 -5 -5 -10 -11 -10 -5 0 -7 5 -4 10 3 6 8 10 11 10 2 0 4 -4 4 -10z
m13 -50 c-3 -11 -7 -20 -9 -20 -2 0 -4 9 -4 20 0 11 4 20 9 20 5 0 7 -9 4 -20z
m-6 -182 c-3 -7 -5 -2 -5 12 0 14 2 19 5 13 2 -7 2 -19 0 -25z m0 -40 c-3 -8
-6 -5 -6 6 -1 11 2 17 5 13 3 -3 4 -12 1 -19z m-10 -495 c-3 -10 -5 -4 -5 12
0 17 2 24 5 18 2 -7 2 -21 0 -30z"/>
<path d="M555 1810 c-3 -6 1 -7 9 -4 18 7 21 14 7 14 -6 0 -13 -4 -16 -10z"/>
<path d="M618 1393 c17 -2 47 -2 65 0 17 2 3 4 -33 4 -36 0 -50 -2 -32 -4z"/>
<path d="M1397 2094 c-1 -1 -29 -4 -61 -8 -136 -14 -141 -87 -8 -126 23 -7 42
-17 42 -22 0 -9 0 -9 -49 -13 -63 -5 -70 -67 -8 -79 42 -7 46 -13 42 -64 -4
-43 -15 -217 -19 -304 -2 -43 -3 -45 -36 -51 -41 -8 -59 -18 -64 -35 -13 -43
16 -82 61 -82 l23 0 0 -287 c1 -386 6 -443 45 -469 23 -15 27 -15 50 0 14 9
33 33 42 51 19 40 30 44 35 13 5 -40 52 -46 313 -44 132 1 247 5 255 8 125 44
194 94 249 183 65 104 93 261 66 365 -29 108 -103 223 -166 255 l-28 15 21 48
c70 160 59 344 -28 460 -68 90 -153 146 -264 172 -36 9 -134 14 -283 14 -126
1 -229 0 -230 0z m502 -292 c23 -12 46 -20 49 -18 4 2 19 -12 32 -31 21 -30
24 -47 24 -108 -1 -74 -25 -140 -51 -140 -6 0 -15 -4 -20 -9 -5 -5 -3 -6 5 -2
6 4 12 2 12 -5 0 -6 -8 -9 -19 -6 -15 3 -18 1 -14 -11 4 -10 2 -13 -5 -8 -6 3
-13 3 -15 -1 -5 -7 -238 -8 -297 -1 -27 3 -29 12 -17 128 3 30 9 93 12 140 4
47 9 88 11 91 1 3 59 5 126 4 107 -1 130 -4 167 -23z m-342 -59 c-2 -16 -4 -3
-4 27 0 30 2 43 4 28 2 -16 2 -40 0 -55z m471 -575 c26 -12 53 -22 60 -23 7 0
21 -14 31 -30 21 -36 30 -185 11 -185 -6 0 -9 -4 -6 -9 3 -4 -11 -26 -31 -47
-19 -21 -32 -32 -28 -24 4 8 -3 3 -16 -12 -21 -24 -32 -28 -94 -31 -38 -2
-108 0 -155 5 -47 4 -109 9 -138 12 -29 2 -56 7 -60 11 -4 3 -8 59 -10 123 -4
183 -6 220 -14 216 -3 -2 -5 -15 -4 -29 2 -13 -1 -22 -5 -19 -5 3 -9 21 -9 40
l0 35 211 -6 c190 -4 215 -7 257 -27z m72 -352 c0 -2 -7 -7 -16 -10 -8 -3 -12
-2 -9 4 6 10 25 14 25 6z m-350 -38 c0 -4 -7 -8 -15 -8 -8 0 -15 4 -15 8 0 5
7 9 15 9 8 0 15 -4 15 -9z m150 -4 c0 -2 -12 -4 -26 -4 -14 0 -23 4 -20 9 6 8
46 4 46 -5z m-113 0 c-3 -3 -12 -4 -19 -1 -8 3 -5 6 6 6 11 1 17 -2 13 -5z"/>
<path d="M1954 1753 c11 -13 16 -23 11 -23 -4 0 -3 -6 3 -13 6 -7 10 -42 8
-80 -2 -37 1 -67 6 -67 11 0 8 139 -4 146 -4 3 -6 9 -3 13 2 5 -5 17 -18 27
l-22 19 19 -22z"/>
<path d="M1959 1543 c-13 -16 -12 -17 4 -4 9 7 17 15 17 17 0 8 -8 3 -21 -13z"/>
<path d="M2087 1133 c-4 -3 -2 -11 3 -18 5 -6 14 -29 19 -51 5 -22 9 -30 10
-17 1 12 -4 34 -11 50 -6 15 -11 31 -10 36 2 9 -3 9 -11 0z"/>
</g>
</svg>
